<svg width="25" height="25" viewBox="0 0 25 25" fill="none" xmlns="http://www.w3.org/2000/svg">
<path d="M21.9586 5.59961C16.3486 16.2396 9.14857 16.2296 3.53857 5.59961" stroke="white" stroke-width="1.5" stroke-linecap="round" stroke-linejoin="round"/>
<path d="M2.73877 7.56934V17.5693C2.73877 18.6302 3.16019 19.6476 3.91034 20.3977C4.66048 21.1479 5.6779 21.5693 6.73877 21.5693H18.7388C19.7996 21.5693 20.817 21.1479 21.5672 20.3977C22.3173 19.6476 22.7388 18.6302 22.7388 17.5693V7.56934C22.7388 6.50847 22.3173 5.49099 21.5672 4.74084C20.817 3.9907 19.7996 3.56934 18.7388 3.56934H6.73877C5.6779 3.56934 4.66048 3.9907 3.91034 4.74084C3.16019 5.49099 2.73877 6.50847 2.73877 7.56934Z" stroke="white" stroke-width="1.5" stroke-linecap="round" stroke-linejoin="round"/>
</svg>
