<svg width="10" height="11" viewBox="0 0 10 11" fill="none" xmlns="http://www.w3.org/2000/svg">
<path d="M9.74371 2.06312C10.0854 1.72139 10.0854 1.16735 9.74371 0.825628C9.40198 0.483905 8.84794 0.483905 8.50622 0.825628L5 4.33184L1.49379 0.825629C1.15207 0.483906 0.598026 0.483906 0.256303 0.825629C-0.0854199 1.16735 -0.0854197 1.72139 0.256303 2.06312L3.76252 5.56933L0.256292 9.07555C-0.0854306 9.41728 -0.0854309 9.97132 0.256292 10.313C0.598015 10.6548 1.15206 10.6548 1.49378 10.313L5 6.80682L8.50623 10.313C8.84795 10.6548 9.40199 10.6548 9.74372 10.313C10.0854 9.97132 10.0854 9.41728 9.74372 9.07555L6.23749 5.56933L9.74371 2.06312Z" fill="white"/>
</svg>
