<svg width="13" height="14" viewBox="0 0 13 14" fill="none" xmlns="http://www.w3.org/2000/svg">
<path d="M6.49998 2.07124C8.23053 2.07124 8.43547 2.07733 9.11911 2.10666C9.53015 2.11139 9.93729 2.18238 10.3228 2.31656C10.6024 2.41798 10.8563 2.57335 11.0682 2.77266C11.2801 2.97196 11.4452 3.2108 11.5531 3.47378C11.6957 3.83643 11.7712 4.2194 11.7762 4.60604C11.8071 5.24911 11.8139 5.44188 11.8139 7.06972C11.8139 8.69756 11.8074 8.89033 11.7762 9.5334C11.7712 9.92004 11.6957 10.303 11.5531 10.6657C11.4452 10.9286 11.2801 11.1675 11.0682 11.3668C10.8563 11.5661 10.6024 11.7215 10.3228 11.8229C9.93729 11.9571 9.53015 12.0281 9.11911 12.0328C8.43578 12.0618 8.23084 12.0682 6.49998 12.0682C4.76911 12.0682 4.56417 12.0621 3.88084 12.0328C3.4698 12.0281 3.06266 11.9571 2.67714 11.8229C2.39756 11.7215 2.14365 11.5661 1.93177 11.3668C1.71988 11.1675 1.55471 10.9286 1.44689 10.6657C1.30425 10.303 1.22877 9.92004 1.22374 9.5334C1.19288 8.89033 1.18609 8.69756 1.18609 7.06972C1.18609 5.44188 1.19257 5.24911 1.22374 4.60604C1.22877 4.2194 1.30425 3.83643 1.44689 3.47378C1.55471 3.2108 1.71988 2.97196 1.93177 2.77266C2.14365 2.57335 2.39756 2.41798 2.67714 2.31656C3.06266 2.18238 3.4698 2.11139 3.88084 2.10666C4.56448 2.07762 4.76942 2.07124 6.49998 2.07124ZM6.49998 0.972656C4.74072 0.972656 4.51911 0.979624 3.82775 1.00924C3.2898 1.0193 2.75757 1.11511 2.25368 1.29259C1.82142 1.44578 1.42991 1.68585 1.10646 1.99604C0.776395 2.30041 0.520961 2.66889 0.358 3.07575C0.169321 3.54973 0.0674653 4.05038 0.0567653 4.5564C0.0259011 5.20614 0.0184937 5.41459 0.0184937 7.06943C0.0184937 8.72427 0.025901 8.93272 0.0573825 9.58304C0.0680825 10.0891 0.169938 10.5897 0.358617 11.0637C0.521397 11.4705 0.776618 11.839 1.10646 12.1434C1.43009 12.4537 1.82182 12.6937 2.2543 12.8468C2.75818 13.0243 3.29042 13.1201 3.82837 13.1302C4.51973 13.1592 4.74041 13.1668 6.50059 13.1668C8.26078 13.1668 8.48146 13.1598 9.17281 13.1302C9.71076 13.1201 10.243 13.0243 10.7469 12.8468C11.1773 12.6899 11.5682 12.4502 11.8945 12.1431C12.2208 11.8359 12.4754 11.4681 12.642 11.0631C12.8306 10.5891 12.9325 10.0885 12.9432 9.58246C12.974 8.93272 12.9815 8.72427 12.9815 7.06943C12.9815 5.41459 12.974 5.20614 12.9426 4.55582C12.9319 4.0498 12.83 3.54915 12.6413 3.07517C12.4786 2.66837 12.2233 2.29989 11.8935 1.99546C11.5699 1.6852 11.1781 1.44513 10.7457 1.29201C10.2418 1.11453 9.70953 1.01872 9.17158 1.00866C8.48084 0.979624 8.25923 0.972656 6.49998 0.972656Z" fill="white"/>
<path d="M6.501 3.93945C5.84271 3.93945 5.1992 4.12307 4.65185 4.46709C4.10449 4.81112 3.67789 5.30009 3.42597 5.87217C3.17405 6.44426 3.10814 7.07376 3.23656 7.68109C3.36499 8.28841 3.68199 8.84627 4.14747 9.28413C4.61296 9.72198 5.20602 10.0202 5.85167 10.141C6.49731 10.2618 7.16654 10.1998 7.77472 9.96281C8.38291 9.72584 8.90273 9.32456 9.26846 8.80969C9.63419 8.29483 9.8294 7.68951 9.8294 7.07029C9.8294 6.23994 9.47873 5.4436 8.85453 4.85645C8.23034 4.26931 7.38375 3.93945 6.501 3.93945ZM6.501 9.10255C6.0737 9.10255 5.65599 8.98336 5.3007 8.76005C4.94541 8.53675 4.66849 8.21935 4.50497 7.848C4.34145 7.47666 4.29866 7.06804 4.38202 6.67382C4.46539 6.2796 4.67115 5.91748 4.9733 5.63327C5.27545 5.34905 5.66042 5.1555 6.07951 5.07708C6.49861 4.99867 6.93301 5.03891 7.32779 5.19273C7.72257 5.34655 8.05999 5.60703 8.29739 5.94123C8.53479 6.27543 8.6615 6.66835 8.6615 7.07029C8.6615 7.60928 8.43387 8.12619 8.0287 8.50731C7.62353 8.88844 7.074 9.10255 6.501 9.10255Z" fill="white"/>
<path d="M9.9604 4.54721C10.3899 4.54721 10.7382 4.21966 10.7382 3.8156C10.7382 3.41154 10.3899 3.08398 9.9604 3.08398C9.53084 3.08398 9.18262 3.41154 9.18262 3.8156C9.18262 4.21966 9.53084 4.54721 9.9604 4.54721Z" fill="white"/>
</svg>
