<svg width="13" height="13" viewBox="0 0 13 13" fill="none" xmlns="http://www.w3.org/2000/svg">
<path d="M1.9805 0.0693359C1.2489 0.0693359 0.655823 0.662413 0.655823 1.39401C0.655823 2.12561 1.2489 2.71869 1.9805 2.71869C2.7121 2.71869 3.30517 2.12561 3.30517 1.39401C3.30517 0.662413 2.7121 0.0693359 1.9805 0.0693359Z" fill="white"/>
<path d="M0.733745 3.8096C0.69071 3.8096 0.655823 3.84448 0.655823 3.88752V11.9914C0.655823 12.0344 0.69071 12.0693 0.733745 12.0693H3.22725C3.27029 12.0693 3.30517 12.0344 3.30517 11.9914V3.88752C3.30517 3.84448 3.27029 3.8096 3.22725 3.8096H0.733745Z" fill="white"/>
<path d="M4.78569 3.8096C4.74266 3.8096 4.70777 3.84448 4.70777 3.88752V11.9914C4.70777 12.0344 4.74266 12.0693 4.78569 12.0693H7.2792C7.32223 12.0693 7.35712 12.0344 7.35712 11.9914V7.62778C7.35712 7.31778 7.48027 7.02049 7.69946 6.80129C7.91866 6.58209 8.21596 6.45895 8.52595 6.45895C8.83595 6.45895 9.13324 6.58209 9.35244 6.80129C9.57164 7.02049 9.69478 7.31778 9.69478 7.62778V11.9914C9.69478 12.0344 9.72967 12.0693 9.77271 12.0693H12.2662C12.3092 12.0693 12.3441 12.0344 12.3441 11.9914V6.61806C12.3441 5.10528 11.0284 3.9218 9.52326 4.05863C9.05906 4.10083 8.60011 4.21623 8.17155 4.3999L7.35712 4.74894V3.88752C7.35712 3.84448 7.32223 3.8096 7.2792 3.8096H4.78569Z" fill="white"/>
</svg>
