<svg width="14" height="15" viewBox="0 0 14 15" fill="none" xmlns="http://www.w3.org/2000/svg">
<path d="M12.8336 8.44415C13.3168 8.44415 13.7086 8.05238 13.7086 7.56911C13.7086 7.08584 13.3168 6.69408 12.8336 6.69408L7.87504 6.69408L7.87504 1.73554C7.87504 1.25227 7.48328 0.860507 7.00001 0.860507C6.51674 0.860507 6.12497 1.25227 6.12497 1.73554L6.12497 6.69408L1.16642 6.69408C0.683153 6.69408 0.291386 7.08584 0.291386 7.56911C0.291385 8.05238 0.683153 8.44415 1.16642 8.44415L6.12497 8.44415L6.12497 13.4027C6.12497 13.886 6.51674 14.2777 7.00001 14.2777C7.48328 14.2777 7.87504 13.886 7.87504 13.4027L7.87504 8.44415L12.8336 8.44415Z" fill="white"/>
</svg>
