<svg width="21" height="20" viewBox="0 0 21 20" fill="none" xmlns="http://www.w3.org/2000/svg">
<path fill-rule="evenodd" clip-rule="evenodd" d="M6.09752 1.37936C6.26024 1.21664 6.52406 1.21664 6.68678 1.37936L7.60821 2.30079C8.2993 1.9021 9.1012 1.67399 9.95637 1.67399H10.5446C11.4005 1.67399 12.203 1.90247 12.8944 2.30176L13.8168 1.37936C13.9796 1.21664 14.2434 1.21664 14.4061 1.37936C14.5688 1.54208 14.5688 1.8059 14.4061 1.96862L13.586 2.78873C14.6042 3.65194 15.2505 4.94043 15.2505 6.37987C15.2505 6.54231 15.1188 6.67399 14.9564 6.67399H5.54461C5.38217 6.67399 5.25049 6.54231 5.25049 6.37987C5.25049 4.93976 5.89738 3.65073 6.91643 2.78752L6.09752 1.96862C5.9348 1.8059 5.9348 1.54208 6.09752 1.37936ZM9.00049 4.38232C9.00049 4.7275 8.72067 5.00732 8.37549 5.00732C8.03031 5.00732 7.75049 4.7275 7.75049 4.38232C7.75049 4.03715 8.03031 3.75732 8.37549 3.75732C8.72067 3.75732 9.00049 4.03715 9.00049 4.38232ZM12.1036 5.00732C12.4487 5.00732 12.7286 4.7275 12.7286 4.38232C12.7286 4.03715 12.4487 3.75732 12.1036 3.75732C11.7584 3.75732 11.4786 4.03715 11.4786 4.38232C11.4786 4.7275 11.7584 5.00732 12.1036 5.00732Z" fill="black"/>
<path d="M3.58382 7.46346C3.12358 7.46346 2.75049 7.83655 2.75049 8.29679V13.2968C2.75049 13.757 3.12358 14.1301 3.58382 14.1301C4.04406 14.1301 4.41715 13.757 4.41715 13.2968V8.29679C4.41715 7.83655 4.04406 7.46346 3.58382 7.46346Z" fill="black"/>
<path d="M6.08382 7.46346C5.62358 7.46346 5.25049 7.83655 5.25049 8.29679V15.7968C5.25049 16.257 5.62358 16.6301 6.08382 16.6301H14.4172C14.8774 16.6301 15.2505 16.257 15.2505 15.7968V8.29679C15.2505 7.83655 14.8774 7.46346 14.4172 7.46346H6.08382Z" fill="black"/>
<path d="M16.2592 8.29679C16.2592 7.83655 16.6323 7.46346 17.0926 7.46346C17.5528 7.46346 17.9259 7.83655 17.9259 8.29679V13.2968C17.9259 13.757 17.5528 14.1301 17.0926 14.1301C16.6323 14.1301 16.2592 13.757 16.2592 13.2968V8.29679Z" fill="black"/>
<path d="M6.74505 17.5073C6.60998 17.5073 6.50049 17.6168 6.50049 17.7519V17.924C6.50049 18.7294 7.15341 19.3823 7.95882 19.3823C8.76424 19.3823 9.41715 18.7294 9.41715 17.924V17.7519C9.41715 17.6168 9.30766 17.5073 9.17259 17.5073H6.74505Z" fill="black"/>
<path d="M11.0838 17.7519C11.0838 17.6168 11.1933 17.5073 11.3284 17.5073H13.7559C13.891 17.5073 14.0005 17.6168 14.0005 17.7519V17.924C14.0005 18.7294 13.3476 19.3823 12.5422 19.3823C11.7367 19.3823 11.0838 18.7294 11.0838 17.924V17.7519Z" fill="black"/>
</svg>
