<svg width="21" height="20" viewBox="0 0 21 20" fill="none" xmlns="http://www.w3.org/2000/svg">
<path fill-rule="evenodd" clip-rule="evenodd" d="M16.1669 15.9742C16.6586 15.2242 16.8419 14.8408 17.2169 13.9992C14.4503 12.9492 14.0086 9.00749 16.7419 7.49915C15.9086 6.44915 14.7336 5.84082 13.6253 5.84082C12.8253 5.84082 12.2753 6.04916 11.7836 6.24082C11.3669 6.39916 10.9919 6.54082 10.5253 6.54082C10.0253 6.54082 9.5836 6.38248 9.11693 6.21582C8.61693 6.03248 8.0836 5.84082 7.41693 5.84082C6.17527 5.84082 4.85027 6.59915 4.0086 7.89915C2.82527 9.73249 3.0336 13.1658 4.94193 16.0992C5.62527 17.1492 6.54194 18.3242 7.7336 18.3408C8.2336 18.3492 8.5586 18.1992 8.91694 18.0408C9.32527 17.8575 9.76693 17.6575 10.5419 17.6575C11.3169 17.6492 11.7503 17.8575 12.1586 18.0408C12.5086 18.1992 12.8253 18.3492 13.3169 18.3408C14.5169 18.3242 15.4836 17.0242 16.1669 15.9742Z" fill="black"/>
<path fill-rule="evenodd" clip-rule="evenodd" d="M13.4504 1.67383C13.5837 2.59049 13.2087 3.49883 12.717 4.13216C12.192 4.81549 11.2754 5.34883 10.392 5.3155C10.2337 4.43216 10.642 3.52383 11.142 2.91549C11.7004 2.24883 12.642 1.73216 13.4504 1.67383Z" fill="black"/>
</svg>
