<svg width="21" height="20" viewBox="0 0 21 20" fill="none" xmlns="http://www.w3.org/2000/svg">
<path d="M10.2422 1.67383C5.64224 1.67383 1.91724 5.40716 1.91724 10.0072C1.91724 14.6072 5.64224 18.3405 10.2422 18.3405C14.8506 18.3405 18.5839 14.6072 18.5839 10.0072C18.5839 5.40716 14.8506 1.67383 10.2422 1.67383ZM16.0172 6.67383H13.5589C13.2922 5.63216 12.9089 4.63216 12.4089 3.70716C13.9422 4.23216 15.2172 5.29883 16.0172 6.67383ZM10.2506 3.37383C10.9422 4.37383 11.4839 5.48216 11.8422 6.67383H8.6589C9.01724 5.48216 9.5589 4.37383 10.2506 3.37383ZM3.80057 11.6738C3.66724 11.1405 3.5839 10.5822 3.5839 10.0072C3.5839 9.43216 3.66724 8.87383 3.80057 8.34049H6.61724C6.55057 8.89049 6.50057 9.44049 6.50057 10.0072C6.50057 10.5738 6.55057 11.1238 6.61724 11.6738H3.80057ZM4.4839 13.3405H6.94224C7.2089 14.3822 7.59224 15.3822 8.09224 16.3072C6.5589 15.7822 5.2839 14.7238 4.4839 13.3405ZM6.94224 6.67383H4.4839C5.2839 5.29049 6.5589 4.23216 8.09224 3.70716C7.59224 4.63216 7.2089 5.63216 6.94224 6.67383ZM10.2506 16.6405C9.5589 15.6405 9.01724 14.5322 8.6589 13.3405H11.8422C11.4839 14.5322 10.9422 15.6405 10.2506 16.6405ZM12.2006 11.6738H8.30057C8.22557 11.1238 8.16724 10.5738 8.16724 10.0072C8.16724 9.44049 8.22557 8.88216 8.30057 8.34049H12.2006C12.2756 8.88216 12.3339 9.44049 12.3339 10.0072C12.3339 10.5738 12.2756 11.1238 12.2006 11.6738ZM12.4089 16.3072C12.9089 15.3822 13.2922 14.3822 13.5589 13.3405H16.0172C15.2172 14.7155 13.9422 15.7822 12.4089 16.3072ZM13.8839 11.6738C13.9506 11.1238 14.0006 10.5738 14.0006 10.0072C14.0006 9.44049 13.9506 8.89049 13.8839 8.34049H16.7006C16.8339 8.87383 16.9172 9.43216 16.9172 10.0072C16.9172 10.5822 16.8339 11.1405 16.7006 11.6738H13.8839Z" fill="black"/>
</svg>
