<svg width="25" height="24" viewBox="0 0 25 24" fill="none" xmlns="http://www.w3.org/2000/svg">
<path d="M12.2505 8C13.3505 8 14.2505 7.1 14.2505 6C14.2505 4.9 13.3505 4 12.2505 4C11.1505 4 10.2505 4.9 10.2505 6C10.2505 7.1 11.1505 8 12.2505 8ZM12.2505 10C11.1505 10 10.2505 10.9 10.2505 12C10.2505 13.1 11.1505 14 12.2505 14C13.3505 14 14.2505 13.1 14.2505 12C14.2505 10.9 13.3505 10 12.2505 10ZM12.2505 16C11.1505 16 10.2505 16.9 10.2505 18C10.2505 19.1 11.1505 20 12.2505 20C13.3505 20 14.2505 19.1 14.2505 18C14.2505 16.9 13.3505 16 12.2505 16Z" fill="black"/>
</svg>
