<svg width="169" height="137" viewBox="0 0 169 137" fill="none" xmlns="http://www.w3.org/2000/svg">
<g filter="url(#filter0_d_0_6995)">
<rect x="51.7496" y="41.7598" width="64.9065" height="33.2475" rx="16.6237" fill="white" fill-opacity="0.09" shape-rendering="crispEdges"/>
<path d="M65.8025 54.7363C65.8025 53.6591 66.9876 53.0023 67.9011 53.5732L73.7361 57.2207C74.5956 57.7579 74.5956 59.0097 73.7361 59.5469L67.9011 63.1934C66.9876 63.7643 65.8025 63.1075 65.8025 62.0303V54.7363Z" stroke="white" stroke-width="1.37151" stroke-linecap="round" stroke-linejoin="round"/>
<path d="M84.0165 59.9862H81.9616V62.8833H80.8611V54.7646H84.0165C85.6111 54.7646 86.6329 55.8089 86.6329 57.3698C86.6329 58.8857 85.5998 59.9862 84.0165 59.9862ZM83.8256 55.7527H81.9616V58.998H83.7807C84.8699 58.998 85.4763 58.3579 85.4763 57.3585C85.4763 56.3367 84.8587 55.7527 83.8256 55.7527ZM88.7777 62.8833H87.7222V54.6186H88.7777V62.8833ZM91.9373 63.0181C90.7583 63.0181 90.062 62.3555 90.062 61.3561C90.062 60.3455 90.8144 59.7167 92.1058 59.6156L93.8351 59.4808V59.3236C93.8351 58.4028 93.2848 58.0772 92.5437 58.0772C91.6566 58.0772 91.1513 58.4702 91.1513 59.1327H90.2305C90.2305 57.9874 91.1737 57.235 92.5886 57.235C93.9474 57.235 94.8682 57.9537 94.8682 59.4359V62.8833H93.9698L93.8575 61.9962C93.5768 62.625 92.8244 63.0181 91.9373 63.0181ZM92.2405 62.1983C93.2399 62.1983 93.8463 61.547 93.8463 60.5139V60.222L92.4426 60.3343C91.5106 60.4241 91.1288 60.7834 91.1288 61.3224C91.1288 61.9064 91.5555 62.1983 92.2405 62.1983ZM95.6706 65.3425V64.4779H96.378C96.8834 64.4779 97.2876 64.3992 97.5459 63.703L97.7368 63.1753L95.5246 57.3922H96.6363L98.2309 61.8165L99.8591 57.3922H100.948L98.3544 64.1185C97.9838 65.0618 97.4336 65.4548 96.5914 65.4548C96.2433 65.4548 95.9513 65.4099 95.6706 65.3425Z" fill="white"/>
</g>
<defs>
<filter id="filter0_d_0_6995" x="0.318085" y="0.614527" width="167.77" height="136.111" filterUnits="userSpaceOnUse" color-interpolation-filters="sRGB">
<feFlood flood-opacity="0" result="BackgroundImageFix"/>
<feColorMatrix in="SourceAlpha" type="matrix" values="0 0 0 0 0 0 0 0 0 0 0 0 0 0 0 0 0 0 127 0" result="hardAlpha"/>
<feOffset dy="10.2863"/>
<feGaussianBlur stdDeviation="25.7158"/>
<feComposite in2="hardAlpha" operator="out"/>
<feColorMatrix type="matrix" values="0 0 0 0 0.107338 0 0 0 0 0.0977778 0 0 0 0 0.266667 0 0 0 0.2 0"/>
<feBlend mode="normal" in2="BackgroundImageFix" result="effect1_dropShadow_0_6995"/>
<feBlend mode="normal" in="SourceGraphic" in2="effect1_dropShadow_0_6995" result="shape"/>
</filter>
</defs>
</svg>
