<svg width="18" height="18" viewBox="0 0 18 18" fill="none" xmlns="http://www.w3.org/2000/svg">
<path d="M9.0918 1.07002L11.5197 6.00575L16.9471 6.79743C17.016 6.80767 17.0806 6.83694 17.1338 6.88194C17.1869 6.92694 17.2265 6.98589 17.2479 7.05214C17.2694 7.11839 17.2719 7.18931 17.2552 7.25693C17.2386 7.32454 17.2033 7.38616 17.1535 7.43483L13.227 11.2759L14.1541 16.7007C14.166 16.7693 14.1585 16.8398 14.1324 16.9044C14.1063 16.9689 14.0626 17.0248 14.0064 17.0658C13.9501 17.1068 13.8835 17.1312 13.8141 17.1362C13.7446 17.1413 13.6752 17.1268 13.6136 17.0943L8.75885 14.5336L3.90413 17.0951C3.84258 17.1276 3.77313 17.1422 3.70368 17.1373C3.63423 17.1323 3.56757 17.1079 3.51127 17.067C3.45497 17.026 3.41129 16.9701 3.3852 16.9055C3.3591 16.841 3.35164 16.7704 3.36365 16.7018L4.29072 11.2759L0.363067 7.43483C0.313266 7.38616 0.278045 7.32454 0.261369 7.25693C0.244694 7.18931 0.247227 7.11839 0.268682 7.05214C0.290138 6.98589 0.329665 6.92694 0.382811 6.88194C0.435957 6.83694 0.500612 6.80767 0.569494 6.79743L5.99688 6.00575L8.42591 1.07002C8.4562 1.00747 8.5035 0.95472 8.56238 0.917812C8.62127 0.880904 8.68936 0.861328 8.75885 0.861328C8.82835 0.861328 8.89644 0.880904 8.95533 0.917812C9.01421 0.95472 9.06151 1.00747 9.0918 1.07002Z" fill="#FF5F1F"/>
</svg>
